REM MD5 838e9ecf8b4e4810f3f82228b40e77d8
FILE "Brave Fencer Musashi (USA).bin" BINARY
  TRACK 01 MODE2/2352
    INDEX 01 00:00:00
  TRACK 02 AUDIO
    INDEX 00 34:28:22
    INDEX 01 34:30:22
  TRACK 03 AUDIO
    INDEX 00 35:28:62
    INDEX 01 35:30:62
  TRACK 04 AUDIO
    INDEX 00 36:10:28
    INDEX 01 36:12:28
REM LEADOUT 39:18:30
